# xmcd
#
# Track frame offsets:
#	150
#	12863
#	25060
#	39223
#	54408
#	74264
#	87405
#	102432
#	115374
#	127439
#	138224
#	151185
#	165888
#	180591
#	195894
#	208033
#	218478
#	233781
#	247205
#	260512
#	284382
#
# Disc length: 4346 seconds
#
# Revision: 0
# Processed by: cddbd v1.5.2PL0 Copyright (c) Steve Scherf et al.
# Submitted via: EasyCDDAExtractor 2010.6.0.0
#
DISCID=2010f815
DTITLE=Neels Kriel - Here We Go Again
DYEAR=1900
DGENRE=country
TTITLE0=You Win Again
TTITLE1=Free Like A Bird
TTITLE2=Here We Go Again
TTITLE3=Blue Eyes Crying In The Rain
TTITLE4=I Need More Of You
TTITLE5=Blue Christmas
TTITLE6=There Goes My Everything
TTITLE7=Tulsa Time 
TTITLE8=Crystal Chandelier
TTITLE9=Just Walking In The Rain
TTITLE10=Pretty Brown Eyes
TTITLE11=Delilah
TTITLE12=Is This The Way To Amarillo
TTITLE13=Bonjour Mademoiselle
TTITLE14=Good Hearted Women
TTITLE15=I'm Leavin It Up To You
TTITLE16=Don't Forget To Remember
TTITLE17=Oh Lonesome Me
TTITLE18=Heartaches By The Number
TTITLE19=The Last Waltz
TTITLE20=Music Video
EXTD=
EXTT0=
EXTT1=
EXTT2=
EXTT3=
EXTT4=
EXTT5=
EXTT6=
EXTT7=
EXTT8=
EXTT9=
EXTT10=
EXTT11=
EXTT12=
EXTT13=
EXTT14=
EXTT15=
EXTT16=
EXTT17=
EXTT18=
EXTT19=
EXTT20=
PLAYORDER=
